<svg width="89" height="31" viewBox="0 0 89 31" fill="none" xmlns="http://www.w3.org/2000/svg">
<path fill-rule="evenodd" clip-rule="evenodd" d="M13.5912 0.136719H16.6977V9.79472L21.5058 1.46682L23.9272 2.86477L18.963 11.463L27.5617 6.49854L28.9597 8.91986L20.6308 13.7285H30.289V16.8351H20.6312L28.9587 21.643L27.5608 24.0643L18.9626 19.1002L23.9279 27.7004L21.5066 29.0983L16.6977 20.7691V30.4257H13.5912V20.7672L8.78268 29.0958L6.36136 27.6978L11.3244 19.1016L2.72864 24.0643L1.33069 21.643L9.65824 16.8351H0V13.7285H9.65865L1.32977 8.91986L2.72772 6.49853L11.3241 11.4616L6.36213 2.86733L8.78346 1.46938L13.5912 9.79657V0.136719ZM43.1506 4.25098V26.7035H48.5827V19.731H52.27C53.9893 19.731 55.4744 19.413 56.7254 18.7772C57.9765 18.1413 58.9385 17.246 59.6116 16.0912C60.292 14.9291 60.6322 13.5733 60.6322 12.0239C60.6322 10.4817 60.2993 9.12959 59.6336 7.96749C58.9678 6.79808 58.0204 5.88814 56.7913 5.23766C55.5695 4.57987 54.1173 4.25098 52.4346 4.25098H43.1506ZM48.5827 15.4553H51.2604C52.0798 15.4553 52.7638 15.3128 53.3125 15.0278C53.8685 14.7427 54.2892 14.3444 54.5745 13.8328C54.8599 13.3139 55.0025 12.7109 55.0025 12.0239C55.0025 11.3295 54.8599 10.7302 54.5745 10.2259C54.2892 9.71429 53.8685 9.31961 53.3125 9.04188C52.7565 8.76415 52.0725 8.62528 51.2604 8.62528H48.5827V15.4553ZM64.5938 26.4514C65.4279 26.8095 66.3826 26.9886 67.4581 26.9886C68.2409 26.9886 68.9432 26.8899 69.5651 26.6926C70.1942 26.4952 70.7393 26.1992 71.2002 25.8046C71.6684 25.4099 72.0525 24.9275 72.3525 24.3574H72.4842V26.7035H77.5322V15.258C77.5322 14.3663 77.3456 13.5733 76.9725 12.879C76.6067 12.1847 76.0873 11.6 75.4142 11.1249C74.7411 10.6425 73.951 10.2771 73.0438 10.0286C72.1367 9.77276 71.1453 9.64486 70.0699 9.64486C68.5628 9.64486 67.2715 9.87874 66.196 10.3465C65.1279 10.807 64.2866 11.4428 63.672 12.2541C63.0648 13.0581 62.688 13.9717 62.5417 14.9949L67.491 15.1703C67.608 14.6294 67.8824 14.2055 68.314 13.8986C68.7457 13.5916 69.3163 13.4381 70.026 13.4381C70.6844 13.4381 71.2075 13.5916 71.5953 13.8986C71.983 14.2055 72.1769 14.6404 72.1769 15.2032V15.258C72.1769 15.6015 72.0415 15.8683 71.7708 16.0583C71.5075 16.241 71.0831 16.3835 70.4979 16.4859C69.9126 16.5809 69.1407 16.6722 68.1823 16.7599C67.3264 16.833 66.5216 16.9756 65.7681 17.1875C65.0145 17.3922 64.3487 17.6955 63.7708 18.0975C63.1928 18.4994 62.7392 19.022 62.41 19.6652C62.0808 20.3084 61.9162 21.0977 61.9162 22.0332C61.9162 23.1442 62.1539 24.0687 62.6295 24.8069C63.1123 25.5378 63.7671 26.0859 64.5938 26.4514ZM70.6734 23.1295C70.2125 23.3634 69.6931 23.4804 69.1151 23.4804C68.5006 23.4804 67.9921 23.3342 67.5897 23.0418C67.1947 22.7495 66.9971 22.3256 66.9971 21.7701C66.9971 21.4047 67.0886 21.0904 67.2715 20.8273C67.4617 20.5569 67.7324 20.3376 68.0836 20.1695C68.4421 20.0014 68.8737 19.8771 69.3785 19.7967C69.6273 19.7602 69.887 19.72 70.1577 19.6762C70.4284 19.6323 70.6917 19.5811 70.9478 19.5227C71.2039 19.4642 71.438 19.4021 71.6501 19.3363C71.8696 19.2705 72.0562 19.1974 72.2098 19.117V20.7177C72.2098 21.2658 72.0708 21.7482 71.7928 22.1648C71.5148 22.5741 71.1417 22.8957 70.6734 23.1295ZM80.8134 4.25098H86.1797V21.4412C86.1871 21.8797 86.2858 22.205 86.476 22.4169C86.6663 22.6216 86.9662 22.7239 87.3759 22.7239C87.5881 22.7166 87.7563 22.7056 87.8807 22.691C88.0051 22.6691 88.1075 22.6435 88.188 22.6143L89.0001 26.3966C88.7513 26.477 88.4514 26.5574 88.1002 26.6378C87.7563 26.7182 87.2589 26.773 86.6077 26.8022C84.6251 26.8899 83.1656 26.5537 82.2291 25.7936C81.2926 25.0262 80.8208 23.7727 80.8134 22.0332V4.25098Z" fill="white"/>
</svg>
