<svg width="82" height="30" viewBox="0 0 82 30" fill="none" xmlns="http://www.w3.org/2000/svg">
<path fill-rule="evenodd" clip-rule="evenodd" d="M9.95384 4.28293C11.7306 4.28293 13.0183 4.59589 13.817 5.2218C14.5994 5.86375 14.9906 6.85077 14.9906 8.18283C14.9906 9.53095 14.5913 19.4408 13.7925 20.1791C12.9938 20.9173 11.7061 21.2864 9.92942 21.2864C8.2994 21.2864 7.03611 20.9173 6.13961 20.1791C5.2431 19.4569 4.79485 9.55502 4.79485 8.2069C4.79485 6.90694 5.2268 5.92795 6.09071 5.26994C6.93832 4.61194 8.22602 4.28293 9.95384 4.28293ZM4.45254 1.39411L0.882813 1.39411L0.882812 29.3863H4.94155L4.94155 21.8161C5.54465 22.7148 6.37596 23.3889 7.43547 23.8382C8.47868 24.3037 9.67676 24.5364 11.0297 24.5364C12.7086 24.5364 14.1593 24.2395 15.3818 23.6456C16.6043 23.0518 17.5497 22.2012 18.218 21.0939C18.4519 20.7101 18.4992 20.4177 18.5576 20.056C18.5847 19.8883 18.6142 19.7057 18.6659 19.4922C18.8289 18.8182 19.2205 8.96923 19.2205 8.18283C19.2205 6.46559 18.87 5.07735 18.1691 4.01812C17.4519 2.95889 16.4902 2.18854 15.284 1.70707C14.6809 1.46634 14.037 1.28979 13.3524 1.17745C12.6678 1.04906 11.9506 0.984863 11.2008 0.984863C9.57078 0.984863 8.21788 1.24165 7.14207 1.75522C6.06626 2.28483 5.26755 3.03914 4.74595 4.01812L4.45254 1.39411ZM43.5009 1.32767C43.5009 2.82023 44.3972 26.3743 45.0329 27.1928C45.6687 28.0274 46.5978 28.6132 47.8203 28.9502C48.4397 29.1107 49.1324 29.2311 49.8985 29.3113C50.6483 29.3916 51.4796 29.4317 52.3925 29.4317C55.082 29.4317 57.1766 29.0064 58.6762 28.1558C60.1471 27.3215 61.0059 20.4202 61.2536 18.4299L61.2673 18.3192H56.9886C56.9715 18.4616 56.9457 18.9934 56.9109 19.7076V19.7077C56.8126 21.7289 56.6432 25.2105 56.4023 25.4596C56.0763 25.8126 55.5628 26.0694 54.8619 26.2299C54.5196 26.3262 54.1121 26.3904 53.6394 26.4225C53.1667 26.4706 52.6288 26.4947 52.0257 26.4947C51.0151 26.4947 50.2245 26.4064 49.654 26.2299C49.0672 26.0534 48.6597 25.8287 48.4315 25.5559C48.3011 25.4114 48.2115 25.267 48.1626 25.1225C48.0974 24.9781 48.0648 24.8256 48.0648 24.6651V24.6411V1.32767L43.5009 1.32767ZM26.6947 26.1842C27.1348 26.425 27.8683 26.5454 28.8952 26.5454C29.5146 26.5454 30.0933 26.4972 30.6312 26.4009C31.1854 26.2886 31.6988 26.1281 32.1716 25.9194C33.1333 25.5182 33.8831 24.9966 34.421 24.3547C34.9752 23.7127 35.2523 23.0467 35.2523 22.3566V22.2603C35.073 22.501 34.7062 22.7016 34.152 22.8621C33.5978 23.0226 32.7502 23.1349 31.6092 23.1991C30.2726 23.2633 29.2538 23.3516 28.5529 23.4639C27.852 23.5602 27.3141 23.6967 26.9392 23.8732C26.6458 24.0176 26.4258 24.1942 26.2791 24.4028C26.1324 24.6114 26.059 24.8522 26.059 25.125V25.1491C26.059 25.5985 26.2709 25.9435 26.6947 26.1842ZM39.1888 28.9768H35.8146L35.4479 25.7028C34.8774 26.7941 33.9401 27.6929 32.6361 28.399C31.3321 29.0891 29.6695 29.4342 27.6483 29.4342C25.7248 29.4342 24.2415 29.1132 23.1983 28.4712C22.1714 27.8132 21.658 26.8262 21.658 25.5102V25.4861C21.658 24.6837 21.8373 23.9855 22.1959 23.3917C22.5545 22.7979 23.1168 22.3245 23.8829 21.9714C24.1111 21.859 24.3556 21.7628 24.6164 21.6825C24.8772 21.5862 25.1462 21.4979 25.4233 21.4177C25.9938 21.2733 26.7273 21.1529 27.6238 21.0566C28.5366 20.9443 29.7428 20.848 31.2424 20.7677C31.764 20.7356 32.2286 20.7035 32.6361 20.6714C33.0436 20.6393 33.3859 20.5992 33.663 20.5511C34.2335 20.4708 34.6329 20.3504 34.8611 20.19C35.0893 20.0134 35.2034 9.74207 35.2034 9.43714V9.41306C35.2034 9.25257 35.1708 9.10011 35.1056 8.95567C35.0567 8.81122 34.967 8.66679 34.8366 8.52235C34.6084 8.24952 34.2009 8.02483 33.6141 7.84829C33.0436 7.67175 32.2531 7.58348 31.2424 7.58348C30.6393 7.58348 30.1014 7.60756 29.6287 7.6557C29.156 7.6878 28.7485 7.752 28.4062 7.84829C27.7053 8.00878 27.1919 8.26556 26.8659 8.61864C26.63 8.86252 26.4623 13.5781 26.363 16.3728V16.3729V16.3729V16.373V16.373C26.3251 17.4403 26.2971 18.2274 26.2791 18.3782H22.0003C22.0288 18.1491 22.0674 17.7954 22.1159 17.3503C22.4548 14.2405 23.2801 6.66651 24.592 5.92241C26.0916 5.07182 28.1862 4.64652 30.8757 4.64652C31.7885 4.64652 32.6198 4.68664 33.3696 4.76689C34.1357 4.84713 34.8285 4.9675 35.4479 5.12799C36.6704 5.46502 37.5995 6.05081 38.2352 6.88535C38.8709 7.70385 39.1888 18.89 39.1888 20.3825V28.9768ZM79.3993 22.5408L79.9236 19.0264L70.7066 18.1494L70.5453 20.6415L79.3993 22.5408ZM63.8064 10.1685L59.9427 10.5955L58.9295 2.89841L61.4658 2.71417L63.8064 10.1685ZM67.4946 10.594L70.3142 13.1812L76.2277 6.4096L74.8773 5.17729L67.4946 10.594Z" fill="#292524"/>
</svg>
